<mxfile host="app.diagrams.net" agent="Mozilla/5.0 (Windows NT 10.0; Win64; x64; rv:132.0) Gecko/20100101 Firefox/132.0" version="24.8.6">
  <diagram id="R2lEEEUBdFMjLlhIrx00" name="Page-1">
    <mxGraphModel dx="1834" dy="1146" grid="0" gridSize="10" guides="1" tooltips="1" connect="1" arrows="1" fold="1" page="0" pageScale="1" pageWidth="850" pageHeight="1100" math="0" shadow="0" extFonts="Permanent Marker^https://fonts.googleapis.com/css?family=Permanent+Marker">
      <root>
        <mxCell id="0" />
        <mxCell id="1" parent="0" />
        <mxCell id="G0pl_QO3Hfvkbfspibtp-177" style="edgeStyle=none;rounded=0;hachureGap=4;orthogonalLoop=1;jettySize=auto;html=1;fontFamily=Verdana;endArrow=none;endFill=0;fillColor=#f8cecc;strokeColor=#b85450;" edge="1" parent="1" source="G0pl_QO3Hfvkbfspibtp-250" target="G0pl_QO3Hfvkbfspibtp-259">
          <mxGeometry relative="1" as="geometry">
            <mxPoint x="794.2048489753874" y="553.7873146683346" as="sourcePoint" />
            <mxPoint x="1201.1996587030721" y="795" as="targetPoint" />
          </mxGeometry>
        </mxCell>
        <mxCell id="G0pl_QO3Hfvkbfspibtp-3" value="Member" style="rounded=0;whiteSpace=wrap;html=1;fillColor=#ffe6cc;strokeColor=#d79b00;fontFamily=Verdana;" vertex="1" parent="1">
          <mxGeometry x="272.5" y="210" width="120" height="60" as="geometry" />
        </mxCell>
        <mxCell id="G0pl_QO3Hfvkbfspibtp-19" style="rounded=0;orthogonalLoop=1;jettySize=auto;html=1;endArrow=none;endFill=0;fillColor=#ffe6cc;strokeColor=#d79b00;fontFamily=Verdana;" edge="1" parent="1" source="G0pl_QO3Hfvkbfspibtp-4" target="G0pl_QO3Hfvkbfspibtp-3">
          <mxGeometry relative="1" as="geometry" />
        </mxCell>
        <mxCell id="G0pl_QO3Hfvkbfspibtp-4" value="PhoneNubmer" style="ellipse;whiteSpace=wrap;html=1;rounded=0;fillColor=#ffe6cc;strokeColor=#d79b00;fontFamily=Verdana;" vertex="1" parent="1">
          <mxGeometry x="50" y="120" width="165" height="60" as="geometry" />
        </mxCell>
        <mxCell id="G0pl_QO3Hfvkbfspibtp-18" style="rounded=0;orthogonalLoop=1;jettySize=auto;html=1;endArrow=none;endFill=0;fillColor=#ffe6cc;strokeColor=#d79b00;fontFamily=Verdana;" edge="1" parent="1" source="G0pl_QO3Hfvkbfspibtp-5" target="G0pl_QO3Hfvkbfspibtp-3">
          <mxGeometry relative="1" as="geometry" />
        </mxCell>
        <mxCell id="G0pl_QO3Hfvkbfspibtp-5" value="&lt;div&gt;Email&lt;/div&gt;" style="ellipse;whiteSpace=wrap;html=1;rounded=0;fillColor=#ffe6cc;strokeColor=#d79b00;fontFamily=Verdana;" vertex="1" parent="1">
          <mxGeometry x="604" y="154" width="165" height="60" as="geometry" />
        </mxCell>
        <mxCell id="G0pl_QO3Hfvkbfspibtp-13" style="rounded=0;orthogonalLoop=1;jettySize=auto;html=1;endArrow=none;endFill=0;fillColor=#ffe6cc;strokeColor=#d79b00;fontFamily=Verdana;" edge="1" parent="1" source="G0pl_QO3Hfvkbfspibtp-6" target="G0pl_QO3Hfvkbfspibtp-3">
          <mxGeometry relative="1" as="geometry" />
        </mxCell>
        <mxCell id="G0pl_QO3Hfvkbfspibtp-6" value="FirstName" style="ellipse;whiteSpace=wrap;html=1;rounded=0;fillColor=#ffe6cc;strokeColor=#d79b00;fontFamily=Verdana;" vertex="1" parent="1">
          <mxGeometry x="50" y="300" width="165" height="60" as="geometry" />
        </mxCell>
        <mxCell id="G0pl_QO3Hfvkbfspibtp-20" style="rounded=0;orthogonalLoop=1;jettySize=auto;html=1;endArrow=none;endFill=0;fillColor=#ffe6cc;strokeColor=#d79b00;fontFamily=Verdana;" edge="1" parent="1" source="G0pl_QO3Hfvkbfspibtp-7" target="G0pl_QO3Hfvkbfspibtp-3">
          <mxGeometry relative="1" as="geometry" />
        </mxCell>
        <mxCell id="G0pl_QO3Hfvkbfspibtp-7" value="LastName" style="ellipse;whiteSpace=wrap;html=1;rounded=0;fillColor=#ffe6cc;strokeColor=#d79b00;fontFamily=Verdana;" vertex="1" parent="1">
          <mxGeometry x="-10" y="210" width="165" height="60" as="geometry" />
        </mxCell>
        <mxCell id="G0pl_QO3Hfvkbfspibtp-15" style="rounded=0;orthogonalLoop=1;jettySize=auto;html=1;endArrow=none;endFill=0;fillColor=#ffe6cc;strokeColor=#d79b00;fontFamily=Verdana;" edge="1" parent="1" source="G0pl_QO3Hfvkbfspibtp-8" target="G0pl_QO3Hfvkbfspibtp-3">
          <mxGeometry relative="1" as="geometry" />
        </mxCell>
        <mxCell id="G0pl_QO3Hfvkbfspibtp-8" value="Birthdate" style="ellipse;whiteSpace=wrap;html=1;rounded=0;fillColor=#ffe6cc;strokeColor=#d79b00;fontFamily=Verdana;" vertex="1" parent="1">
          <mxGeometry x="561" y="313" width="165" height="60" as="geometry" />
        </mxCell>
        <mxCell id="G0pl_QO3Hfvkbfspibtp-16" style="rounded=0;orthogonalLoop=1;jettySize=auto;html=1;endArrow=none;endFill=0;fillColor=#ffe6cc;strokeColor=#d79b00;fontFamily=Verdana;" edge="1" parent="1" source="G0pl_QO3Hfvkbfspibtp-9" target="G0pl_QO3Hfvkbfspibtp-3">
          <mxGeometry relative="1" as="geometry" />
        </mxCell>
        <mxCell id="G0pl_QO3Hfvkbfspibtp-9" value="Address" style="ellipse;whiteSpace=wrap;html=1;rounded=0;fillColor=#fff2cc;strokeColor=#d6b656;fontFamily=Verdana;" vertex="1" parent="1">
          <mxGeometry x="198" y="16" width="165" height="60" as="geometry" />
        </mxCell>
        <mxCell id="G0pl_QO3Hfvkbfspibtp-17" style="rounded=0;orthogonalLoop=1;jettySize=auto;html=1;endArrow=none;endFill=0;fillColor=#ffe6cc;strokeColor=#d79b00;fontFamily=Verdana;" edge="1" parent="1" source="G0pl_QO3Hfvkbfspibtp-10" target="G0pl_QO3Hfvkbfspibtp-3">
          <mxGeometry relative="1" as="geometry" />
        </mxCell>
        <mxCell id="G0pl_QO3Hfvkbfspibtp-10" value="CreatedDate" style="ellipse;whiteSpace=wrap;html=1;rounded=0;fillColor=#ffe6cc;strokeColor=#d79b00;fontFamily=Verdana;" vertex="1" parent="1">
          <mxGeometry x="433" y="70" width="165" height="60" as="geometry" />
        </mxCell>
        <mxCell id="G0pl_QO3Hfvkbfspibtp-14" style="rounded=0;orthogonalLoop=1;jettySize=auto;html=1;endArrow=none;endFill=0;fillColor=#ffe6cc;strokeColor=#d79b00;fontFamily=Verdana;" edge="1" parent="1" source="G0pl_QO3Hfvkbfspibtp-12" target="G0pl_QO3Hfvkbfspibtp-3">
          <mxGeometry relative="1" as="geometry" />
        </mxCell>
        <mxCell id="G0pl_QO3Hfvkbfspibtp-12" value="SubscriptionType" style="ellipse;whiteSpace=wrap;html=1;rounded=0;fillColor=#fff2cc;strokeColor=#d6b656;fontFamily=Verdana;" vertex="1" parent="1">
          <mxGeometry x="679" y="73" width="165" height="60" as="geometry" />
        </mxCell>
        <mxCell id="G0pl_QO3Hfvkbfspibtp-22" style="rounded=0;orthogonalLoop=1;jettySize=auto;html=1;endArrow=none;endFill=0;fillColor=#ffe6cc;strokeColor=#d79b00;fontFamily=Verdana;" edge="1" parent="1" source="G0pl_QO3Hfvkbfspibtp-21" target="G0pl_QO3Hfvkbfspibtp-3">
          <mxGeometry relative="1" as="geometry" />
        </mxCell>
        <mxCell id="G0pl_QO3Hfvkbfspibtp-21" value="MemberId" style="ellipse;whiteSpace=wrap;html=1;rounded=0;fillColor=#ffe6cc;strokeColor=#d79b00;fontStyle=4;fontFamily=Verdana;" vertex="1" parent="1">
          <mxGeometry x="112" y="399" width="165" height="60" as="geometry" />
        </mxCell>
        <mxCell id="G0pl_QO3Hfvkbfspibtp-42" style="edgeStyle=orthogonalEdgeStyle;rounded=0;orthogonalLoop=1;jettySize=auto;html=1;endArrow=none;endFill=0;shape=link;fillColor=#ffe6cc;strokeColor=#d79b00;fontFamily=Verdana;" edge="1" parent="1" source="G0pl_QO3Hfvkbfspibtp-257" target="G0pl_QO3Hfvkbfspibtp-3">
          <mxGeometry relative="1" as="geometry">
            <mxPoint x="333.0000000000002" y="502" as="sourcePoint" />
          </mxGeometry>
        </mxCell>
        <mxCell id="G0pl_QO3Hfvkbfspibtp-94" style="rounded=0;orthogonalLoop=1;jettySize=auto;html=1;endArrow=none;endFill=0;fillColor=#f8cecc;strokeColor=#b85450;fontFamily=Verdana;" edge="1" parent="1" source="G0pl_QO3Hfvkbfspibtp-95" target="G0pl_QO3Hfvkbfspibtp-259">
          <mxGeometry relative="1" as="geometry">
            <mxPoint x="1283.7432432432433" y="795" as="targetPoint" />
          </mxGeometry>
        </mxCell>
        <mxCell id="G0pl_QO3Hfvkbfspibtp-95" value="Weekday" style="ellipse;whiteSpace=wrap;html=1;rounded=0;fillColor=#CFACAA;strokeColor=#C45A55;fontFamily=Verdana;" vertex="1" parent="1">
          <mxGeometry x="1373" y="610" width="165" height="60" as="geometry" />
        </mxCell>
        <mxCell id="G0pl_QO3Hfvkbfspibtp-223" style="edgeStyle=none;rounded=0;orthogonalLoop=1;jettySize=auto;html=1;endArrow=none;endFill=0;fillColor=#f8cecc;strokeColor=#b85450;fontFamily=Verdana;" edge="1" parent="1" source="G0pl_QO3Hfvkbfspibtp-102" target="G0pl_QO3Hfvkbfspibtp-259">
          <mxGeometry relative="1" as="geometry">
            <mxPoint x="1330" y="838.3738317757011" as="targetPoint" />
          </mxGeometry>
        </mxCell>
        <mxCell id="G0pl_QO3Hfvkbfspibtp-102" value="EndTime" style="ellipse;whiteSpace=wrap;html=1;rounded=0;fillColor=#f8cecc;strokeColor=#b85450;fontFamily=Verdana;" vertex="1" parent="1">
          <mxGeometry x="1703" y="885" width="165" height="60" as="geometry" />
        </mxCell>
        <mxCell id="G0pl_QO3Hfvkbfspibtp-105" style="rounded=0;orthogonalLoop=1;jettySize=auto;html=1;endArrow=none;endFill=0;fillColor=#f8cecc;strokeColor=#b85450;fontFamily=Verdana;" edge="1" parent="1" source="G0pl_QO3Hfvkbfspibtp-106" target="G0pl_QO3Hfvkbfspibtp-259">
          <mxGeometry relative="1" as="geometry">
            <mxPoint x="1330" y="801.5736677115985" as="targetPoint" />
          </mxGeometry>
        </mxCell>
        <mxCell id="G0pl_QO3Hfvkbfspibtp-106" value="Duration" style="ellipse;whiteSpace=wrap;html=1;rounded=0;fillColor=#f8cecc;strokeColor=#000000;dashed=1;strokeWidth=2;fontFamily=Verdana;" vertex="1" parent="1">
          <mxGeometry x="1487" y="701" width="165" height="60" as="geometry" />
        </mxCell>
        <mxCell id="G0pl_QO3Hfvkbfspibtp-116" value="" style="rounded=0;orthogonalLoop=1;jettySize=auto;html=1;endArrow=none;endFill=0;fillColor=#f8cecc;strokeColor=#C45A55;fontFamily=Verdana;" edge="1" parent="1" source="G0pl_QO3Hfvkbfspibtp-111" target="G0pl_QO3Hfvkbfspibtp-95">
          <mxGeometry relative="1" as="geometry">
            <mxPoint x="1038.9956833661968" y="560.5217824530512" as="sourcePoint" />
          </mxGeometry>
        </mxCell>
        <mxCell id="G0pl_QO3Hfvkbfspibtp-111" value="WeekdayId" style="ellipse;whiteSpace=wrap;html=1;rounded=0;fillColor=#CFACAA;strokeColor=#C45A55;fontStyle=4;fontFamily=Verdana;" vertex="1" parent="1">
          <mxGeometry x="1341" y="427" width="165" height="60" as="geometry" />
        </mxCell>
        <mxCell id="G0pl_QO3Hfvkbfspibtp-115" value="" style="rounded=0;orthogonalLoop=1;jettySize=auto;html=1;endArrow=none;endFill=0;fillColor=#f8cecc;strokeColor=#C45A55;fontFamily=Verdana;" edge="1" parent="1" source="G0pl_QO3Hfvkbfspibtp-113" target="G0pl_QO3Hfvkbfspibtp-95">
          <mxGeometry relative="1" as="geometry" />
        </mxCell>
        <mxCell id="G0pl_QO3Hfvkbfspibtp-113" value="WeekdayName" style="ellipse;whiteSpace=wrap;html=1;rounded=0;fillColor=#CFACAA;strokeColor=#C45A55;fontFamily=Verdana;" vertex="1" parent="1">
          <mxGeometry x="1557" y="484" width="165" height="60" as="geometry" />
        </mxCell>
        <mxCell id="G0pl_QO3Hfvkbfspibtp-117" value="StartTime" style="ellipse;whiteSpace=wrap;html=1;rounded=0;fillColor=#f8cecc;strokeColor=#b85450;fontFamily=Verdana;" vertex="1" parent="1">
          <mxGeometry x="1627" y="780" width="165" height="60" as="geometry" />
        </mxCell>
        <mxCell id="G0pl_QO3Hfvkbfspibtp-127" style="edgeStyle=orthogonalEdgeStyle;rounded=0;hachureGap=4;orthogonalLoop=1;jettySize=auto;html=1;fontFamily=Verdana;endArrow=none;endFill=0;fillColor=#f8cecc;strokeColor=#b85450;" edge="1" parent="1" source="G0pl_QO3Hfvkbfspibtp-256" target="G0pl_QO3Hfvkbfspibtp-259">
          <mxGeometry relative="1" as="geometry">
            <mxPoint x="806" y="825" as="sourcePoint" />
            <mxPoint x="1171" y="825" as="targetPoint" />
          </mxGeometry>
        </mxCell>
        <mxCell id="G0pl_QO3Hfvkbfspibtp-126" value="StemFitnessCenter" style="rounded=0;whiteSpace=wrap;html=1;hachureGap=4;fontFamily=Verdana;fillColor=#d5e8d4;strokeColor=#82b366;" vertex="1" parent="1">
          <mxGeometry x="258.75" y="795" width="147.5" height="60" as="geometry" />
        </mxCell>
        <mxCell id="G0pl_QO3Hfvkbfspibtp-131" style="rounded=0;hachureGap=4;orthogonalLoop=1;jettySize=auto;html=1;fontFamily=Verdana;endArrow=none;endFill=0;fillColor=#d5e8d4;strokeColor=#82b366;" edge="1" parent="1" source="G0pl_QO3Hfvkbfspibtp-130" target="G0pl_QO3Hfvkbfspibtp-126">
          <mxGeometry relative="1" as="geometry" />
        </mxCell>
        <mxCell id="G0pl_QO3Hfvkbfspibtp-130" value="FitnessCenterId" style="ellipse;whiteSpace=wrap;html=1;rounded=0;fillColor=#d5e8d4;strokeColor=#82b366;fontFamily=Verdana;" vertex="1" parent="1">
          <mxGeometry x="-10" y="708" width="165" height="60" as="geometry" />
        </mxCell>
        <mxCell id="G0pl_QO3Hfvkbfspibtp-133" style="edgeStyle=none;rounded=0;hachureGap=4;orthogonalLoop=1;jettySize=auto;html=1;fontFamily=Verdana;endArrow=none;endFill=0;fillColor=#d5e8d4;strokeColor=#82b366;" edge="1" parent="1" source="G0pl_QO3Hfvkbfspibtp-132" target="G0pl_QO3Hfvkbfspibtp-126">
          <mxGeometry relative="1" as="geometry" />
        </mxCell>
        <mxCell id="G0pl_QO3Hfvkbfspibtp-132" value="Name" style="ellipse;whiteSpace=wrap;html=1;rounded=0;fillColor=#d5e8d4;strokeColor=#82b366;fontFamily=Verdana;" vertex="1" parent="1">
          <mxGeometry x="-44" y="825" width="165" height="60" as="geometry" />
        </mxCell>
        <mxCell id="G0pl_QO3Hfvkbfspibtp-136" style="edgeStyle=none;rounded=0;hachureGap=4;orthogonalLoop=1;jettySize=auto;html=1;fontFamily=Verdana;endArrow=none;endFill=0;fillColor=#d5e8d4;strokeColor=#82b366;" edge="1" parent="1" source="G0pl_QO3Hfvkbfspibtp-135" target="G0pl_QO3Hfvkbfspibtp-126">
          <mxGeometry relative="1" as="geometry" />
        </mxCell>
        <mxCell id="G0pl_QO3Hfvkbfspibtp-135" value="Room" style="ellipse;whiteSpace=wrap;html=1;rounded=0;fillColor=#6d8764;strokeColor=#3A5431;fontColor=#ffffff;fontFamily=Verdana;" vertex="1" parent="1">
          <mxGeometry x="64" y="939" width="165" height="60" as="geometry" />
        </mxCell>
        <mxCell id="G0pl_QO3Hfvkbfspibtp-139" value="" style="edgeStyle=none;rounded=0;orthogonalLoop=1;jettySize=auto;html=1;endArrow=none;endFill=0;fillColor=#f8cecc;strokeColor=#b85450;fontFamily=Verdana;" edge="1" parent="1" source="G0pl_QO3Hfvkbfspibtp-117" target="G0pl_QO3Hfvkbfspibtp-259">
          <mxGeometry relative="1" as="geometry">
            <mxPoint x="1728" y="787.5" as="sourcePoint" />
            <mxPoint x="1330" y="822.4019607843136" as="targetPoint" />
          </mxGeometry>
        </mxCell>
        <mxCell id="G0pl_QO3Hfvkbfspibtp-141" value="1" style="text;html=1;align=center;verticalAlign=middle;resizable=0;points=[];autosize=1;strokeColor=none;fillColor=none;fontFamily=Verdana;fontSize=20;textShadow=0;fontStyle=1" vertex="1" parent="1">
          <mxGeometry x="404" y="785" width="31" height="36" as="geometry" />
        </mxCell>
        <mxCell id="G0pl_QO3Hfvkbfspibtp-142" value="N" style="text;html=1;align=center;verticalAlign=middle;resizable=0;points=[];autosize=1;strokeColor=none;fillColor=none;fontFamily=Verdana;fontSize=20;textShadow=0;fontStyle=1" vertex="1" parent="1">
          <mxGeometry x="1100" y="788.5" width="33" height="36" as="geometry" />
        </mxCell>
        <mxCell id="G0pl_QO3Hfvkbfspibtp-144" style="edgeStyle=none;rounded=0;hachureGap=4;orthogonalLoop=1;jettySize=auto;html=1;fontFamily=Verdana;endArrow=none;endFill=0;fillColor=#f8cecc;strokeColor=#b85450;" edge="1" parent="1" source="G0pl_QO3Hfvkbfspibtp-143" target="G0pl_QO3Hfvkbfspibtp-259">
          <mxGeometry relative="1" as="geometry">
            <mxPoint x="1311.5830324909748" y="855" as="targetPoint" />
          </mxGeometry>
        </mxCell>
        <mxCell id="G0pl_QO3Hfvkbfspibtp-143" value="ClassType" style="ellipse;whiteSpace=wrap;html=1;rounded=0;fillColor=#CFACAA;strokeColor=#C45A55;fontFamily=Verdana;" vertex="1" parent="1">
          <mxGeometry x="1450" y="933.5" width="165" height="60" as="geometry" />
        </mxCell>
        <mxCell id="G0pl_QO3Hfvkbfspibtp-146" style="edgeStyle=none;rounded=0;hachureGap=4;orthogonalLoop=1;jettySize=auto;html=1;fontFamily=Verdana;endArrow=none;endFill=0;fillColor=#f8cecc;strokeColor=#b85450;" edge="1" parent="1" source="G0pl_QO3Hfvkbfspibtp-145" target="G0pl_QO3Hfvkbfspibtp-143">
          <mxGeometry relative="1" as="geometry" />
        </mxCell>
        <mxCell id="G0pl_QO3Hfvkbfspibtp-148" style="edgeStyle=none;rounded=0;hachureGap=4;orthogonalLoop=1;jettySize=auto;html=1;fontFamily=Verdana;endArrow=none;endFill=0;fillColor=#f8cecc;strokeColor=#C45A55;" edge="1" parent="1" source="G0pl_QO3Hfvkbfspibtp-145" target="G0pl_QO3Hfvkbfspibtp-143">
          <mxGeometry relative="1" as="geometry" />
        </mxCell>
        <mxCell id="G0pl_QO3Hfvkbfspibtp-147" value="ClassTypeName" style="ellipse;whiteSpace=wrap;html=1;rounded=0;fillColor=#CFACAA;strokeColor=#C45A55;fontFamily=Verdana;" vertex="1" parent="1">
          <mxGeometry x="1636" y="1067.5" width="165" height="60" as="geometry" />
        </mxCell>
        <mxCell id="G0pl_QO3Hfvkbfspibtp-149" value="" style="edgeStyle=none;rounded=0;hachureGap=4;orthogonalLoop=1;jettySize=auto;html=1;fontFamily=Verdana;endArrow=none;endFill=0;fillColor=#f8cecc;strokeColor=#C45A55;" edge="1" parent="1" source="G0pl_QO3Hfvkbfspibtp-147" target="G0pl_QO3Hfvkbfspibtp-143">
          <mxGeometry relative="1" as="geometry">
            <mxPoint x="1302" y="1120.5" as="sourcePoint" />
            <mxPoint x="1322" y="1022.5" as="targetPoint" />
          </mxGeometry>
        </mxCell>
        <mxCell id="G0pl_QO3Hfvkbfspibtp-145" value="ClassTypeId" style="ellipse;whiteSpace=wrap;html=1;rounded=0;fillColor=#CFACAA;strokeColor=#C45A55;fontStyle=4;fontFamily=Verdana;" vertex="1" parent="1">
          <mxGeometry x="1697" y="979.5" width="165" height="60" as="geometry" />
        </mxCell>
        <mxCell id="G0pl_QO3Hfvkbfspibtp-151" style="edgeStyle=none;rounded=0;hachureGap=4;orthogonalLoop=1;jettySize=auto;html=1;fontFamily=Verdana;endArrow=none;endFill=0;fillColor=#f8cecc;strokeColor=#b85450;" edge="1" parent="1" source="G0pl_QO3Hfvkbfspibtp-150" target="G0pl_QO3Hfvkbfspibtp-259">
          <mxGeometry relative="1" as="geometry">
            <mxPoint x="1272.1964285714284" y="855" as="targetPoint" />
          </mxGeometry>
        </mxCell>
        <mxCell id="G0pl_QO3Hfvkbfspibtp-150" value="CurrentParticipants" style="ellipse;whiteSpace=wrap;html=1;rounded=0;fillColor=#f8cecc;strokeColor=#b85450;strokeWidth=1;fontFamily=Verdana;" vertex="1" parent="1">
          <mxGeometry x="1330" y="1019" width="165" height="60" as="geometry" />
        </mxCell>
        <mxCell id="G0pl_QO3Hfvkbfspibtp-152" style="edgeStyle=none;rounded=0;hachureGap=4;orthogonalLoop=1;jettySize=auto;html=1;exitX=0.5;exitY=1;exitDx=0;exitDy=0;fontFamily=Verdana;" edge="1" parent="1" source="G0pl_QO3Hfvkbfspibtp-150" target="G0pl_QO3Hfvkbfspibtp-150">
          <mxGeometry relative="1" as="geometry" />
        </mxCell>
        <mxCell id="G0pl_QO3Hfvkbfspibtp-153" style="edgeStyle=none;rounded=0;hachureGap=4;orthogonalLoop=1;jettySize=auto;html=1;exitX=0.5;exitY=1;exitDx=0;exitDy=0;fontFamily=Verdana;" edge="1" parent="1">
          <mxGeometry relative="1" as="geometry">
            <mxPoint x="1148" y="1046.5" as="sourcePoint" />
            <mxPoint x="1148" y="1046.5" as="targetPoint" />
          </mxGeometry>
        </mxCell>
        <mxCell id="G0pl_QO3Hfvkbfspibtp-175" style="edgeStyle=none;rounded=0;hachureGap=4;orthogonalLoop=1;jettySize=auto;html=1;fontFamily=Verdana;endArrow=none;endFill=0;fillColor=#d5e8d4;strokeColor=#82b366;" edge="1" parent="1" source="G0pl_QO3Hfvkbfspibtp-254" target="G0pl_QO3Hfvkbfspibtp-126">
          <mxGeometry relative="1" as="geometry">
            <mxPoint x="379.5570388349515" y="1030.3398058252428" as="sourcePoint" />
          </mxGeometry>
        </mxCell>
        <mxCell id="G0pl_QO3Hfvkbfspibtp-176" style="edgeStyle=none;rounded=0;hachureGap=4;orthogonalLoop=1;jettySize=auto;html=1;fontFamily=Verdana;endArrow=none;endFill=0;fillColor=#f8cecc;strokeColor=#b85450;" edge="1" parent="1" source="G0pl_QO3Hfvkbfspibtp-253" target="G0pl_QO3Hfvkbfspibtp-259">
          <mxGeometry relative="1" as="geometry">
            <mxPoint x="859.6325682136962" y="1064.429457622653" as="sourcePoint" />
            <mxPoint x="1200.35590778098" y="855" as="targetPoint" />
          </mxGeometry>
        </mxCell>
        <mxCell id="G0pl_QO3Hfvkbfspibtp-156" value="Trainer" style="rounded=0;whiteSpace=wrap;html=1;fillColor=#dae8fc;strokeColor=#6c8ebf;fontFamily=Verdana;" vertex="1" parent="1">
          <mxGeometry x="396.5" y="1292" width="120" height="60" as="geometry" />
        </mxCell>
        <mxCell id="G0pl_QO3Hfvkbfspibtp-157" style="rounded=0;orthogonalLoop=1;jettySize=auto;html=1;endArrow=none;endFill=0;fillColor=#dae8fc;strokeColor=#6c8ebf;fontFamily=Verdana;" edge="1" parent="1" source="G0pl_QO3Hfvkbfspibtp-158" target="G0pl_QO3Hfvkbfspibtp-156">
          <mxGeometry relative="1" as="geometry" />
        </mxCell>
        <mxCell id="G0pl_QO3Hfvkbfspibtp-158" value="PhoneNumber" style="ellipse;whiteSpace=wrap;html=1;rounded=0;fillColor=#dae8fc;strokeColor=#6c8ebf;fontFamily=Verdana;" vertex="1" parent="1">
          <mxGeometry x="589" y="1314" width="165" height="60" as="geometry" />
        </mxCell>
        <mxCell id="G0pl_QO3Hfvkbfspibtp-159" style="rounded=0;orthogonalLoop=1;jettySize=auto;html=1;endArrow=none;endFill=0;fillColor=#dae8fc;strokeColor=#6c8ebf;fontFamily=Verdana;" edge="1" parent="1" source="G0pl_QO3Hfvkbfspibtp-160" target="G0pl_QO3Hfvkbfspibtp-156">
          <mxGeometry relative="1" as="geometry" />
        </mxCell>
        <mxCell id="G0pl_QO3Hfvkbfspibtp-160" value="&lt;div&gt;Email&lt;/div&gt;" style="ellipse;whiteSpace=wrap;html=1;rounded=0;fillColor=#dae8fc;strokeColor=#6c8ebf;fontFamily=Verdana;" vertex="1" parent="1">
          <mxGeometry x="439" y="1481" width="165" height="60" as="geometry" />
        </mxCell>
        <mxCell id="G0pl_QO3Hfvkbfspibtp-161" style="rounded=0;orthogonalLoop=1;jettySize=auto;html=1;endArrow=none;endFill=0;fillColor=#dae8fc;strokeColor=#6c8ebf;fontFamily=Verdana;" edge="1" parent="1" source="G0pl_QO3Hfvkbfspibtp-162" target="G0pl_QO3Hfvkbfspibtp-156">
          <mxGeometry relative="1" as="geometry" />
        </mxCell>
        <mxCell id="G0pl_QO3Hfvkbfspibtp-162" value="FirstName" style="ellipse;whiteSpace=wrap;html=1;rounded=0;fillColor=#dae8fc;strokeColor=#6c8ebf;fontFamily=Verdana;" vertex="1" parent="1">
          <mxGeometry x="132" y="1402" width="165" height="60" as="geometry" />
        </mxCell>
        <mxCell id="G0pl_QO3Hfvkbfspibtp-163" style="rounded=0;orthogonalLoop=1;jettySize=auto;html=1;endArrow=none;endFill=0;fillColor=#dae8fc;strokeColor=#6c8ebf;fontFamily=Verdana;" edge="1" parent="1" source="G0pl_QO3Hfvkbfspibtp-164" target="G0pl_QO3Hfvkbfspibtp-156">
          <mxGeometry relative="1" as="geometry" />
        </mxCell>
        <mxCell id="G0pl_QO3Hfvkbfspibtp-164" value="LastName" style="ellipse;whiteSpace=wrap;html=1;rounded=0;fillColor=#dae8fc;strokeColor=#6c8ebf;fontFamily=Verdana;" vertex="1" parent="1">
          <mxGeometry x="254" y="1481" width="165" height="60" as="geometry" />
        </mxCell>
        <mxCell id="G0pl_QO3Hfvkbfspibtp-169" style="rounded=0;orthogonalLoop=1;jettySize=auto;html=1;endArrow=none;endFill=0;fillColor=#dae8fc;strokeColor=#6c8ebf;fontFamily=Verdana;" edge="1" parent="1" source="G0pl_QO3Hfvkbfspibtp-170" target="G0pl_QO3Hfvkbfspibtp-156">
          <mxGeometry relative="1" as="geometry" />
        </mxCell>
        <mxCell id="G0pl_QO3Hfvkbfspibtp-170" value="CreatedDate" style="ellipse;whiteSpace=wrap;html=1;rounded=0;fillColor=#dae8fc;strokeColor=#6c8ebf;strokeWidth=1;fontFamily=Verdana;" vertex="1" parent="1">
          <mxGeometry x="577" y="1408" width="165" height="60" as="geometry" />
        </mxCell>
        <mxCell id="G0pl_QO3Hfvkbfspibtp-173" style="rounded=0;orthogonalLoop=1;jettySize=auto;html=1;endArrow=none;endFill=0;fillColor=#dae8fc;strokeColor=#6c8ebf;fontFamily=Verdana;" edge="1" parent="1" source="G0pl_QO3Hfvkbfspibtp-174" target="G0pl_QO3Hfvkbfspibtp-156">
          <mxGeometry relative="1" as="geometry" />
        </mxCell>
        <mxCell id="G0pl_QO3Hfvkbfspibtp-174" value="TrainerId" style="ellipse;whiteSpace=wrap;html=1;rounded=0;fillColor=#dae8fc;strokeColor=#6c8ebf;fontStyle=4;fontFamily=Verdana;" vertex="1" parent="1">
          <mxGeometry x="91" y="1309" width="165" height="60" as="geometry" />
        </mxCell>
        <mxCell id="G0pl_QO3Hfvkbfspibtp-178" value="1" style="text;html=1;align=center;verticalAlign=middle;resizable=0;points=[];autosize=1;strokeColor=none;fillColor=none;fontFamily=Verdana;fontSize=20;textShadow=0;fontStyle=1" vertex="1" parent="1">
          <mxGeometry x="303" y="752.5" width="31" height="36" as="geometry" />
        </mxCell>
        <mxCell id="G0pl_QO3Hfvkbfspibtp-179" value="N" style="text;html=1;align=center;verticalAlign=middle;resizable=0;points=[];autosize=1;strokeColor=none;fillColor=none;fontFamily=Verdana;fontSize=20;textShadow=0;fontStyle=1" vertex="1" parent="1">
          <mxGeometry x="300" y="300" width="33" height="36" as="geometry" />
        </mxCell>
        <mxCell id="G0pl_QO3Hfvkbfspibtp-180" value="1" style="text;html=1;align=center;verticalAlign=middle;resizable=0;points=[];autosize=1;strokeColor=none;fillColor=none;fontFamily=Verdana;fontSize=20;textShadow=0;fontStyle=1" vertex="1" parent="1">
          <mxGeometry x="315" y="868" width="31" height="36" as="geometry" />
        </mxCell>
        <mxCell id="G0pl_QO3Hfvkbfspibtp-181" value="N" style="text;html=1;align=center;verticalAlign=middle;resizable=0;points=[];autosize=1;strokeColor=none;fillColor=none;fontFamily=Verdana;fontSize=20;textShadow=0;fontStyle=1" vertex="1" parent="1">
          <mxGeometry x="401" y="1241" width="33" height="36" as="geometry" />
        </mxCell>
        <mxCell id="G0pl_QO3Hfvkbfspibtp-182" value="1" style="text;html=1;align=center;verticalAlign=middle;resizable=0;points=[];autosize=1;strokeColor=none;fillColor=none;fontFamily=Verdana;fontSize=20;textShadow=0;fontStyle=1" vertex="1" parent="1">
          <mxGeometry x="546" y="1259" width="31" height="36" as="geometry" />
        </mxCell>
        <mxCell id="G0pl_QO3Hfvkbfspibtp-183" value="N" style="text;html=1;align=center;verticalAlign=middle;resizable=0;points=[];autosize=1;strokeColor=none;fillColor=none;fontFamily=Verdana;fontSize=20;textShadow=0;fontStyle=1" vertex="1" parent="1">
          <mxGeometry x="1142" y="885" width="33" height="36" as="geometry" />
        </mxCell>
        <mxCell id="G0pl_QO3Hfvkbfspibtp-184" value="N" style="text;html=1;align=center;verticalAlign=middle;resizable=0;points=[];autosize=1;strokeColor=none;fillColor=none;fontFamily=Verdana;fontSize=20;textShadow=0;fontStyle=1" vertex="1" parent="1">
          <mxGeometry x="392" y="292" width="33" height="36" as="geometry" />
        </mxCell>
        <mxCell id="G0pl_QO3Hfvkbfspibtp-185" value="M" style="text;html=1;align=center;verticalAlign=middle;resizable=0;points=[];autosize=1;strokeColor=none;fillColor=none;fontFamily=Verdana;fontSize=20;textShadow=0;fontStyle=1" vertex="1" parent="1">
          <mxGeometry x="1155" y="738" width="35" height="36" as="geometry" />
        </mxCell>
        <mxCell id="G0pl_QO3Hfvkbfspibtp-189" style="edgeStyle=none;rounded=0;hachureGap=4;orthogonalLoop=1;jettySize=auto;html=1;fontFamily=Verdana;endArrow=none;endFill=0;fillColor=#fff2cc;strokeColor=#d6b656;" edge="1" parent="1" source="G0pl_QO3Hfvkbfspibtp-186" target="G0pl_QO3Hfvkbfspibtp-12">
          <mxGeometry relative="1" as="geometry" />
        </mxCell>
        <mxCell id="G0pl_QO3Hfvkbfspibtp-186" value="SubscriptionId" style="ellipse;whiteSpace=wrap;html=1;rounded=0;fillColor=#fff2cc;strokeColor=#d6b656;fontStyle=4;fontFamily=Verdana;" vertex="1" parent="1">
          <mxGeometry x="785.5" y="-103" width="165" height="60" as="geometry" />
        </mxCell>
        <mxCell id="G0pl_QO3Hfvkbfspibtp-188" style="edgeStyle=none;rounded=0;hachureGap=4;orthogonalLoop=1;jettySize=auto;html=1;fontFamily=Verdana;endArrow=none;endFill=0;fillColor=#fff2cc;strokeColor=#d6b656;" edge="1" parent="1" source="G0pl_QO3Hfvkbfspibtp-187" target="G0pl_QO3Hfvkbfspibtp-12">
          <mxGeometry relative="1" as="geometry" />
        </mxCell>
        <mxCell id="G0pl_QO3Hfvkbfspibtp-187" value="SubscriptionName" style="ellipse;whiteSpace=wrap;html=1;rounded=0;fillColor=#fff2cc;strokeColor=#d6b656;fontFamily=Verdana;" vertex="1" parent="1">
          <mxGeometry x="965" y="16" width="165" height="60" as="geometry" />
        </mxCell>
        <mxCell id="G0pl_QO3Hfvkbfspibtp-191" style="edgeStyle=none;rounded=0;hachureGap=4;orthogonalLoop=1;jettySize=auto;html=1;fontFamily=Verdana;endArrow=none;endFill=0;fillColor=#ffe6cc;strokeColor=#d79b00;" edge="1" parent="1" source="G0pl_QO3Hfvkbfspibtp-190" target="G0pl_QO3Hfvkbfspibtp-3">
          <mxGeometry relative="1" as="geometry" />
        </mxCell>
        <mxCell id="G0pl_QO3Hfvkbfspibtp-190" value="MaxClassesPerMonth" style="ellipse;whiteSpace=wrap;html=1;rounded=0;fillColor=#ffe6cc;strokeColor=#d79b00;strokeWidth=1;fontFamily=Verdana;" vertex="1" parent="1">
          <mxGeometry x="635" y="235" width="165" height="60" as="geometry" />
        </mxCell>
        <mxCell id="G0pl_QO3Hfvkbfspibtp-195" value="" style="edgeStyle=none;rounded=0;hachureGap=4;orthogonalLoop=1;jettySize=auto;html=1;fontFamily=Verdana;endArrow=none;endFill=0;shape=link;fillColor=#dae8fc;strokeColor=#6c8ebf;" edge="1" parent="1" source="G0pl_QO3Hfvkbfspibtp-156" target="G0pl_QO3Hfvkbfspibtp-254">
          <mxGeometry relative="1" as="geometry">
            <mxPoint x="402" y="1123" as="sourcePoint" />
            <mxPoint x="396.59730493310826" y="1098.8841647508516" as="targetPoint" />
          </mxGeometry>
        </mxCell>
        <mxCell id="G0pl_QO3Hfvkbfspibtp-197" value="" style="edgeStyle=orthogonalEdgeStyle;rounded=0;orthogonalLoop=1;jettySize=auto;html=1;endArrow=none;endFill=0;fillColor=#d5e8d4;strokeColor=#82b366;fontFamily=Verdana;" edge="1" parent="1" source="G0pl_QO3Hfvkbfspibtp-126" target="G0pl_QO3Hfvkbfspibtp-257">
          <mxGeometry relative="1" as="geometry">
            <mxPoint x="333" y="795" as="sourcePoint" />
            <mxPoint x="333.0000000000002" y="582" as="targetPoint" />
          </mxGeometry>
        </mxCell>
        <mxCell id="G0pl_QO3Hfvkbfspibtp-199" value="" style="edgeStyle=orthogonalEdgeStyle;rounded=0;hachureGap=4;orthogonalLoop=1;jettySize=auto;html=1;fontFamily=Verdana;endArrow=none;endFill=0;fillColor=#d5e8d4;strokeColor=#82b366;" edge="1" parent="1" source="G0pl_QO3Hfvkbfspibtp-126" target="G0pl_QO3Hfvkbfspibtp-256">
          <mxGeometry relative="1" as="geometry">
            <mxPoint x="393" y="825" as="sourcePoint" />
            <mxPoint x="687" y="825" as="targetPoint" />
          </mxGeometry>
        </mxCell>
        <mxCell id="G0pl_QO3Hfvkbfspibtp-202" value="" style="edgeStyle=none;rounded=0;hachureGap=4;orthogonalLoop=1;jettySize=auto;html=1;fontFamily=Verdana;endArrow=none;endFill=0;fillColor=#dae8fc;strokeColor=#6c8ebf;" edge="1" parent="1" source="G0pl_QO3Hfvkbfspibtp-156" target="G0pl_QO3Hfvkbfspibtp-253">
          <mxGeometry relative="1" as="geometry">
            <mxPoint x="458" y="1123" as="sourcePoint" />
            <mxPoint x="798.0446453909858" y="1103.0258120275535" as="targetPoint" />
          </mxGeometry>
        </mxCell>
        <mxCell id="G0pl_QO3Hfvkbfspibtp-216" style="edgeStyle=none;rounded=0;orthogonalLoop=1;jettySize=auto;html=1;endArrow=none;endFill=0;fillColor=#fff2cc;strokeColor=#d6b656;fontFamily=Verdana;" edge="1" parent="1" source="G0pl_QO3Hfvkbfspibtp-203" target="G0pl_QO3Hfvkbfspibtp-9">
          <mxGeometry relative="1" as="geometry" />
        </mxCell>
        <mxCell id="G0pl_QO3Hfvkbfspibtp-203" value="Street" style="ellipse;whiteSpace=wrap;html=1;rounded=0;fillColor=#fff2cc;strokeColor=#d6b656;fontStyle=0;fontFamily=Verdana;" vertex="1" parent="1">
          <mxGeometry x="-18" y="-66" width="165" height="60" as="geometry" />
        </mxCell>
        <mxCell id="G0pl_QO3Hfvkbfspibtp-213" style="edgeStyle=none;rounded=0;orthogonalLoop=1;jettySize=auto;html=1;endArrow=none;endFill=0;fillColor=#fff2cc;strokeColor=#d6b656;fontFamily=Verdana;" edge="1" parent="1" source="G0pl_QO3Hfvkbfspibtp-204" target="G0pl_QO3Hfvkbfspibtp-9">
          <mxGeometry relative="1" as="geometry" />
        </mxCell>
        <mxCell id="G0pl_QO3Hfvkbfspibtp-204" value="HouseNr" style="ellipse;whiteSpace=wrap;html=1;rounded=0;fillColor=#fff2cc;strokeColor=#d6b656;fontStyle=0;fontFamily=Verdana;" vertex="1" parent="1">
          <mxGeometry x="108.5" y="-126" width="165" height="60" as="geometry" />
        </mxCell>
        <mxCell id="G0pl_QO3Hfvkbfspibtp-214" style="edgeStyle=none;rounded=0;orthogonalLoop=1;jettySize=auto;html=1;endArrow=none;endFill=0;fillColor=#fff2cc;strokeColor=#d6b656;fontFamily=Verdana;" edge="1" parent="1" source="G0pl_QO3Hfvkbfspibtp-205" target="G0pl_QO3Hfvkbfspibtp-9">
          <mxGeometry relative="1" as="geometry" />
        </mxCell>
        <mxCell id="G0pl_QO3Hfvkbfspibtp-205" value="PostcalCode" style="ellipse;whiteSpace=wrap;html=1;rounded=0;fillColor=#fff2cc;strokeColor=#d6b656;fontStyle=0;fontFamily=Verdana;" vertex="1" parent="1">
          <mxGeometry x="317" y="-137" width="165" height="60" as="geometry" />
        </mxCell>
        <mxCell id="G0pl_QO3Hfvkbfspibtp-215" style="edgeStyle=none;rounded=0;orthogonalLoop=1;jettySize=auto;html=1;endArrow=none;endFill=0;fillColor=#fff2cc;strokeColor=#d6b656;fontFamily=Verdana;" edge="1" parent="1" source="G0pl_QO3Hfvkbfspibtp-206" target="G0pl_QO3Hfvkbfspibtp-9">
          <mxGeometry relative="1" as="geometry" />
        </mxCell>
        <mxCell id="G0pl_QO3Hfvkbfspibtp-206" value="City" style="ellipse;whiteSpace=wrap;html=1;rounded=0;fillColor=#fff2cc;strokeColor=#d6b656;fontStyle=0;fontFamily=Verdana;" vertex="1" parent="1">
          <mxGeometry x="518" y="-93" width="165" height="60" as="geometry" />
        </mxCell>
        <mxCell id="G0pl_QO3Hfvkbfspibtp-219" style="edgeStyle=none;rounded=0;orthogonalLoop=1;jettySize=auto;html=1;endArrow=none;endFill=0;fillColor=#6d8764;strokeColor=#3A5431;fontFamily=Verdana;" edge="1" parent="1" source="G0pl_QO3Hfvkbfspibtp-217" target="G0pl_QO3Hfvkbfspibtp-135">
          <mxGeometry relative="1" as="geometry" />
        </mxCell>
        <mxCell id="G0pl_QO3Hfvkbfspibtp-217" value="RoomName" style="ellipse;whiteSpace=wrap;html=1;rounded=0;fillColor=#6d8764;strokeColor=#3A5431;fontColor=#ffffff;fontFamily=Verdana;" vertex="1" parent="1">
          <mxGeometry x="-44" y="1076" width="165" height="60" as="geometry" />
        </mxCell>
        <mxCell id="G0pl_QO3Hfvkbfspibtp-220" style="edgeStyle=none;rounded=0;orthogonalLoop=1;jettySize=auto;html=1;endArrow=none;endFill=0;fillColor=#6d8764;strokeColor=#3A5431;fontFamily=Verdana;" edge="1" parent="1" source="G0pl_QO3Hfvkbfspibtp-218" target="G0pl_QO3Hfvkbfspibtp-135">
          <mxGeometry relative="1" as="geometry" />
        </mxCell>
        <mxCell id="G0pl_QO3Hfvkbfspibtp-218" value="RoomId" style="ellipse;whiteSpace=wrap;html=1;rounded=0;fillColor=#6d8764;strokeColor=#3A5431;fontColor=#ffffff;fontStyle=4;fontFamily=Verdana;" vertex="1" parent="1">
          <mxGeometry x="-168" y="975" width="165" height="60" as="geometry" />
        </mxCell>
        <mxCell id="G0pl_QO3Hfvkbfspibtp-222" style="edgeStyle=none;rounded=0;orthogonalLoop=1;jettySize=auto;html=1;endArrow=none;endFill=0;fillColor=#f8cecc;strokeColor=#b85450;fontFamily=Verdana;" edge="1" parent="1" source="G0pl_QO3Hfvkbfspibtp-221" target="G0pl_QO3Hfvkbfspibtp-259">
          <mxGeometry relative="1" as="geometry">
            <mxPoint x="1249.730403800475" y="795" as="targetPoint" />
          </mxGeometry>
        </mxCell>
        <mxCell id="G0pl_QO3Hfvkbfspibtp-221" value="FitnessClassId" style="ellipse;whiteSpace=wrap;html=1;rounded=0;fillColor=#f8cecc;strokeColor=#b85450;fontStyle=4;fontFamily=Verdana;" vertex="1" parent="1">
          <mxGeometry x="1162.6" y="584.5" width="165" height="60" as="geometry" />
        </mxCell>
        <mxCell id="G0pl_QO3Hfvkbfspibtp-227" value="" style="edgeStyle=none;rounded=0;hachureGap=4;orthogonalLoop=1;jettySize=auto;html=1;fontFamily=Verdana;endArrow=none;endFill=0;fillColor=#ffe6cc;strokeColor=#d79b00;" edge="1" parent="1" source="G0pl_QO3Hfvkbfspibtp-3" target="G0pl_QO3Hfvkbfspibtp-250">
          <mxGeometry relative="1" as="geometry">
            <mxPoint x="364" y="270" as="sourcePoint" />
            <mxPoint x="727" y="511" as="targetPoint" />
          </mxGeometry>
        </mxCell>
        <mxCell id="G0pl_QO3Hfvkbfspibtp-233" style="edgeStyle=none;rounded=0;orthogonalLoop=1;jettySize=auto;html=1;endArrow=none;endFill=0;fillColor=#fff2cc;strokeColor=#d6b656;fontFamily=Verdana;" edge="1" parent="1" source="G0pl_QO3Hfvkbfspibtp-232" target="G0pl_QO3Hfvkbfspibtp-12">
          <mxGeometry relative="1" as="geometry" />
        </mxCell>
        <mxCell id="G0pl_QO3Hfvkbfspibtp-232" value="Benefit" style="ellipse;whiteSpace=wrap;html=1;rounded=0;fillColor=#fff2cc;strokeColor=#d6b656;fontFamily=Verdana;" vertex="1" parent="1">
          <mxGeometry x="965" y="111" width="165" height="60" as="geometry" />
        </mxCell>
        <mxCell id="G0pl_QO3Hfvkbfspibtp-235" style="edgeStyle=none;rounded=0;orthogonalLoop=1;jettySize=auto;html=1;endArrow=none;endFill=0;fillColor=#f8cecc;strokeColor=#b85450;fontFamily=Verdana;" edge="1" parent="1" source="G0pl_QO3Hfvkbfspibtp-234" target="G0pl_QO3Hfvkbfspibtp-259">
          <mxGeometry relative="1" as="geometry">
            <mxPoint x="1253.822475570033" y="855" as="targetPoint" />
          </mxGeometry>
        </mxCell>
        <mxCell id="G0pl_QO3Hfvkbfspibtp-234" value="MaxParticipants" style="ellipse;whiteSpace=wrap;html=1;rounded=0;fillColor=#f8cecc;strokeColor=#b85450;strokeWidth=1;fontFamily=Verdana;" vertex="1" parent="1">
          <mxGeometry x="1202" y="1102" width="165" height="60" as="geometry" />
        </mxCell>
        <mxCell id="G0pl_QO3Hfvkbfspibtp-237" style="edgeStyle=none;rounded=0;orthogonalLoop=1;jettySize=auto;html=1;endArrow=none;endFill=0;fillColor=#f8cecc;strokeColor=#b85450;fontFamily=Verdana;" edge="1" parent="1" source="G0pl_QO3Hfvkbfspibtp-236" target="G0pl_QO3Hfvkbfspibtp-259">
          <mxGeometry relative="1" as="geometry">
            <mxPoint x="1237.375" y="855" as="targetPoint" />
          </mxGeometry>
        </mxCell>
        <mxCell id="G0pl_QO3Hfvkbfspibtp-236" value="RemainingSpots" style="ellipse;whiteSpace=wrap;html=1;rounded=0;fillColor=#f8cecc;strokeColor=#000000;strokeWidth=2;dashed=1;fontFamily=Verdana;" vertex="1" parent="1">
          <mxGeometry x="1063" y="1035" width="165" height="60" as="geometry" />
        </mxCell>
        <mxCell id="G0pl_QO3Hfvkbfspibtp-239" style="edgeStyle=none;rounded=0;orthogonalLoop=1;jettySize=auto;html=1;endArrow=none;endFill=0;fillColor=#f8cecc;strokeColor=#C45A55;fontFamily=Verdana;" edge="1" parent="1" source="G0pl_QO3Hfvkbfspibtp-238" target="G0pl_QO3Hfvkbfspibtp-143">
          <mxGeometry relative="1" as="geometry" />
        </mxCell>
        <mxCell id="G0pl_QO3Hfvkbfspibtp-238" value="Description" style="ellipse;whiteSpace=wrap;html=1;rounded=0;fillColor=#CFACAA;strokeColor=#C45A55;fontFamily=Verdana;" vertex="1" parent="1">
          <mxGeometry x="1477" y="1123.5" width="165" height="60" as="geometry" />
        </mxCell>
        <mxCell id="G0pl_QO3Hfvkbfspibtp-247" style="rounded=0;orthogonalLoop=1;jettySize=auto;html=1;strokeColor=#314354;fontColor=#1A1A1A;fillColor=#647687;endArrow=none;endFill=0;fontFamily=Verdana;" edge="1" parent="1" source="G0pl_QO3Hfvkbfspibtp-244" target="G0pl_QO3Hfvkbfspibtp-250">
          <mxGeometry relative="1" as="geometry">
            <mxPoint x="791.3470687169633" y="510.2188851513697" as="targetPoint" />
          </mxGeometry>
        </mxCell>
        <mxCell id="G0pl_QO3Hfvkbfspibtp-244" value="BookingId" style="ellipse;whiteSpace=wrap;html=1;rounded=0;fillColor=#bac8d3;strokeColor=#23445d;fontFamily=Verdana;" vertex="1" parent="1">
          <mxGeometry x="754" y="373" width="165" height="60" as="geometry" />
        </mxCell>
        <mxCell id="G0pl_QO3Hfvkbfspibtp-246" style="rounded=0;orthogonalLoop=1;jettySize=auto;html=1;strokeColor=#314354;fontColor=#1A1A1A;fillColor=#647687;endArrow=none;endFill=0;fontFamily=Verdana;" edge="1" parent="1" source="G0pl_QO3Hfvkbfspibtp-245" target="G0pl_QO3Hfvkbfspibtp-250">
          <mxGeometry relative="1" as="geometry">
            <mxPoint x="735.2351856405212" y="561.0710597492011" as="targetPoint" />
          </mxGeometry>
        </mxCell>
        <mxCell id="G0pl_QO3Hfvkbfspibtp-245" value="BookingDate" style="ellipse;whiteSpace=wrap;html=1;rounded=0;fillColor=#bac8d3;strokeColor=#23445d;fontFamily=Verdana;" vertex="1" parent="1">
          <mxGeometry x="497" y="594" width="165" height="60" as="geometry" />
        </mxCell>
        <mxCell id="G0pl_QO3Hfvkbfspibtp-250" value="Can book" style="shape=rhombus;double=1;perimeter=rhombusPerimeter;whiteSpace=wrap;html=1;align=center;strokeColor=#23445d;fillColor=#bac8d3;" vertex="1" parent="1">
          <mxGeometry x="687" y="487" width="164" height="90" as="geometry" />
        </mxCell>
        <mxCell id="G0pl_QO3Hfvkbfspibtp-253" value="Leads" style="shape=rhombus;perimeter=rhombusPerimeter;whiteSpace=wrap;html=1;align=center;fillColor=#1A1A1A;strokeColor=#0e8088;fontColor=#FFFFFF;" vertex="1" parent="1">
          <mxGeometry x="726" y="1043" width="179" height="84.5" as="geometry" />
        </mxCell>
        <mxCell id="G0pl_QO3Hfvkbfspibtp-254" value="Associated" style="shape=rhombus;perimeter=rhombusPerimeter;whiteSpace=wrap;html=1;align=center;fillColor=#1A1A1A;strokeColor=#0e8088;fontColor=#FFFFFF;" vertex="1" parent="1">
          <mxGeometry x="297" y="1019" width="179" height="84.5" as="geometry" />
        </mxCell>
        <mxCell id="G0pl_QO3Hfvkbfspibtp-256" value="&lt;div&gt;Can have&lt;/div&gt;" style="shape=rhombus;perimeter=rhombusPerimeter;whiteSpace=wrap;html=1;align=center;fillColor=#1A1A1A;strokeColor=#0e8088;fontColor=#FFFFFF;" vertex="1" parent="1">
          <mxGeometry x="656" y="782.75" width="179" height="84.5" as="geometry" />
        </mxCell>
        <mxCell id="G0pl_QO3Hfvkbfspibtp-257" value="Member subscribes to" style="shape=rhombus;perimeter=rhombusPerimeter;whiteSpace=wrap;html=1;align=center;fillColor=#1A1A1A;strokeColor=#0e8088;fontSize=12;fontColor=#FFFFFF;" vertex="1" parent="1">
          <mxGeometry x="243" y="503" width="179" height="84.5" as="geometry" />
        </mxCell>
        <mxCell id="G0pl_QO3Hfvkbfspibtp-259" value="FitnessClass" style="rounded=0;whiteSpace=wrap;html=1;hachureGap=4;fontFamily=Verdana;fillColor=#f8cecc;strokeColor=#b85450;" vertex="1" parent="1">
          <mxGeometry x="1182.5" y="795" width="147.5" height="60" as="geometry" />
        </mxCell>
        <mxCell id="G0pl_QO3Hfvkbfspibtp-261" value="AddressId" style="ellipse;whiteSpace=wrap;html=1;rounded=0;fillColor=#fff2cc;strokeColor=#d6b656;fontStyle=4;fontFamily=Verdana;" vertex="1" parent="1">
          <mxGeometry x="-67" y="16" width="165" height="60" as="geometry" />
        </mxCell>
        <mxCell id="G0pl_QO3Hfvkbfspibtp-263" style="edgeStyle=none;rounded=0;orthogonalLoop=1;jettySize=auto;html=1;endArrow=none;endFill=0;fillColor=#fff2cc;strokeColor=#d6b656;fontFamily=Verdana;" edge="1" parent="1" source="G0pl_QO3Hfvkbfspibtp-261" target="G0pl_QO3Hfvkbfspibtp-9">
          <mxGeometry relative="1" as="geometry">
            <mxPoint x="132" y="-4" as="sourcePoint" />
            <mxPoint x="233" y="34" as="targetPoint" />
          </mxGeometry>
        </mxCell>
      </root>
    </mxGraphModel>
  </diagram>
</mxfile>
